<svg width="1308" height="730" viewBox="0 0 1308 730" fill="none" xmlns="http://www.w3.org/2000/svg">
<path fill-rule="evenodd" clip-rule="evenodd" d="M846 0C886.108 0 923.313 7.55842 953.975 20.4611C977.718 10.6923 1005.63 5.06242 1035.5 5.06242C1090.18 5.06242 1138.31 23.9313 1166.29 52.5201C1196.79 37.4194 1235.88 28.3495 1278.5 28.3495C1365.82 28.3495 1438.33 66.4251 1452.49 116.436H1481V730H-7V171.67C-28.8025 166.527 -42 155.731 -42 133.442C-42 84.3478 22.0233 44.5492 101 44.5492C124.332 44.5492 146.359 48.0229 165.816 54.1836C193.299 38.0924 229.208 28.3495 268.5 28.3495C316.048 28.3495 358.644 42.6173 387.346 65.1371C430.912 44.9771 492.6 32.3995 561 32.3995C608.751 32.3995 653.231 38.5295 690.558 49.0898C724.945 19.3977 781.748 0 846 0Z" fill="#B9E4FC"/>
</svg>
